<?xml version="1.0" encoding="iso-8859-1"?>
<!-- Generator: Adobe Illustrator 19.0.0, SVG Export Plug-In . SVG Version: 6.00 Build 0)  -->
<svg version="1.1" id="Layer_1" xmlns="http://www.w3.org/2000/svg" xmlns:xlink="http://www.w3.org/1999/xlink" x="0px" y="0px"
	 viewBox="0 0 512 512" style="enable-background:new 0 0 512 512;" xml:space="preserve">
<polygon style="fill:#FFF296;" points="427.062,239.856 412.966,394.894 352.681,427.574 353.411,207.175 "/>
<polygon style="fill:#FFF9CF;" points="84.938,239.856 99.034,394.894 240.961,449.362 385.362,394.894 396.985,239.856 
	240.961,174.494 "/>
<path style="fill:#FFF296;" d="M128,8.17C61.821,8.17,8.17,61.821,8.17,128c0,51.004,31.864,94.557,76.767,111.856h68.423
	L179.2,8.17H128z"/>
<g>
	<path style="fill:#FEEB5C;" d="M179.2,8.17c-39.707,0-71.898,53.651-71.898,119.83c0,51.004,19.118,94.557,46.058,111.856h68.423
		L230.4,8.17H179.2z"/>
	<path style="fill:#FEEB5C;" d="M384,8.17h-22.506l35.491,231.685h30.077C471.966,222.557,503.83,179.004,503.83,128
		C503.83,61.821,450.179,8.17,384,8.17z"/>
</g>
<path style="fill:#FFF296;" d="M361.494,8.17H332.8l25.84,231.685h38.346c37.006-17.299,63.27-60.852,63.27-111.856
	C460.255,61.821,416.038,8.17,361.494,8.17z"/>
<path style="fill:#FEEB5C;" d="M332.8,8.17h-51.2l8.617,231.685h68.423c26.94-17.299,46.058-60.852,46.058-111.856
	C404.698,61.821,372.507,8.17,332.8,8.17z"/>
<path style="fill:#FFF296;" d="M305.566,128c0,51.004-6.373,94.557-15.349,111.856h-68.434
	c-8.976-17.299-15.349-60.852-15.349-111.856c0-66.179,10.73-119.83,23.966-119.83h51.2C294.836,8.17,305.566,61.821,305.566,128z"
	/>
<polygon style="fill:#FEEB5C;" points="412.966,394.894 403.064,503.83 377.202,503.83 327.085,449.362 385.362,394.894 "/>
<polygon style="fill:#FFF296;" points="385.362,394.894 377.202,503.83 108.936,503.83 99.034,394.894 "/>
<path d="M384,0H128C57.42,0,0,57.42,0,128c0,26.375,7.96,51.702,23.019,73.244c13.728,19.638,32.4,34.869,54.232,44.292
	L100.8,504.569c0.382,4.208,3.911,7.431,8.136,7.431h294.128c4.226,0,7.754-3.222,8.136-7.431l23.549-259.033
	c21.832-9.422,40.505-24.653,54.232-44.292C504.04,179.702,512,154.375,512,128C512,57.42,454.58,0,384,0z M424.124,232.228
	c-2.902,1.118-4.918,3.787-5.198,6.884L395.602,495.66H116.398L93.075,239.112c-0.281-3.097-2.296-5.766-5.198-6.884
	C45.089,215.744,16.34,173.858,16.34,128C16.34,66.43,66.43,16.34,128,16.34h256c61.57,0,111.66,50.09,111.66,111.66
	C495.66,173.859,466.911,215.744,424.124,232.228z"/>
<path d="M378.353,34.751c-3.83,2.386-5,7.424-2.614,11.255C388.95,67.217,396.528,97.102,396.528,128
	c0,27.875-6.031,54.636-16.983,75.353c-2.109,3.989-0.584,8.933,3.405,11.041c1.217,0.644,2.523,0.949,3.811,0.949
	c2.931,0,5.766-1.582,7.231-4.354c12.173-23.028,18.876-52.501,18.876-82.989c0-34.365-8.261-66.553-23.26-90.634
	C387.221,33.535,382.183,32.368,378.353,34.751z"/>
<path d="M297.396,128c0,28.723-2.078,56.335-5.852,77.753c-0.784,4.445,2.184,8.681,6.628,9.464
	c0.479,0.085,0.956,0.125,1.428,0.125c3.89,0,7.338-2.79,8.036-6.754c3.934-22.324,6.1-50.945,6.1-80.589
	c0-33.872-2.733-65.424-7.694-88.843c-0.935-4.416-5.276-7.237-9.687-6.3c-4.414,0.935-7.234,5.271-6.299,9.687
	C294.72,64.56,297.396,95.707,297.396,128z"/>
<path d="M212.402,215.343c0.471,0,0.948-0.041,1.428-0.125c4.443-0.783,7.412-5.02,6.628-9.464
	c-3.775-21.418-5.853-49.03-5.853-77.753c0-32.292,2.675-63.44,7.339-85.456c0.935-4.414-1.885-8.751-6.299-9.687
	c-4.414-0.932-8.751,1.885-9.687,6.3c-4.961,23.42-7.694,54.971-7.694,88.843c0,29.644,2.167,58.265,6.102,80.589
	C205.063,212.553,208.51,215.343,212.402,215.343z"/>
<path d="M125.237,215.338c1.288,0,2.594-0.305,3.811-0.949c3.989-2.109,5.514-7.053,3.405-11.042
	c-10.95-20.715-16.981-47.475-16.981-75.348c0-30.9,7.579-60.787,20.794-82c2.385-3.83,1.215-8.87-2.614-11.255
	c-3.829-2.386-8.868-1.216-11.255,2.614C107.394,61.442,99.132,93.632,99.132,128c0,30.487,6.703,59.958,18.874,82.985
	C119.471,213.757,122.305,215.338,125.237,215.338z"/>
<path d="M380.152,386.723H131.849c-4.513,0-8.17,3.658-8.17,8.17c0,4.512,3.657,8.17,8.17,8.17h248.304
	c4.513,0,8.17-3.658,8.17-8.17C388.323,390.381,384.664,386.723,380.152,386.723z"/>
<path d="M394.245,231.681H117.983c-4.513,0-8.17,3.658-8.17,8.17s3.657,8.17,8.17,8.17h276.262c4.513,0,8.17-3.658,8.17-8.17
	S398.759,231.681,394.245,231.681z"/>
<g>
</g>
<g>
</g>
<g>
</g>
<g>
</g>
<g>
</g>
<g>
</g>
<g>
</g>
<g>
</g>
<g>
</g>
<g>
</g>
<g>
</g>
<g>
</g>
<g>
</g>
<g>
</g>
<g>
</g>
</svg>
