<?xml version="1.0" encoding="iso-8859-1"?>
<!-- Generator: Adobe Illustrator 19.0.0, SVG Export Plug-In . SVG Version: 6.00 Build 0)  -->
<svg version="1.1" id="Layer_1" xmlns="http://www.w3.org/2000/svg" xmlns:xlink="http://www.w3.org/1999/xlink" x="0px" y="0px"
	 viewBox="0 0 512.005 512.005" style="enable-background:new 0 0 512.005 512.005;" xml:space="preserve">
<g id="XMLID_1349_">
	<g id="XMLID_6291_">
		<g id="XMLID_6482_">
			<g id="XMLID_5876_">
				<path id="XMLID_6597_" style="fill:#C4C8F7;" d="M355.404,138.488c-0.01,0.32-0.04,0.67-0.09,1.03
					c-1.25,9.25-37.02,18.08-63.36,35.67c-7.22,4.81-13.72,10.28-18.62,16.6l-22.15-22.15l-22.19-22.2
					c2.19-6.41,4.81-14.6,7.23-23.47c4.94-18.02,9.06-38.85,7.05-53.35c-4.28-30.88,24.75-11.53,32.41,9.83
					c7.66,21.37,23.98-0.61,43.13,27.82C337.384,135.828,355.784,127.948,355.404,138.488z"/>
				<path id="XMLID_6300_" style="fill:#A6AEF2;" d="M355.404,138.488c-0.01,0.32-0.04,0.67-0.09,1.03
					c-1.25,9.25-37.02,18.08-63.36,35.67c-7.22,4.81-13.72,10.28-18.62,16.6l-22.15-22.15
					C280.154,142.758,318.884,132.378,355.404,138.488z"/>
				<path id="XMLID_6832_" style="fill:#A6AEF2;" d="M271.857,148.7c8.073,8.073,14.773,16.998,20.1,26.486
					c-7.22,4.813-13.721,10.286-18.619,16.599l-44.342-44.342c2.183-6.416,4.807-14.603,7.232-23.474
					C249.145,129.833,261.238,138.081,271.857,148.7z"/>
			</g>
			<g id="XMLID_5903_">
				<path id="XMLID_6833_" style="fill:#FFA6B7;" d="M98.666,279.658l49.258,49.258c-1.856,5.436-3.997,12.027-6.095,19.217
					c-6.265,21.382-12.257,48.14-9.76,66.129c4.747,34.304-27.495,12.813-36.004-10.921c-8.508-23.734-26.643,0.665-47.916-30.9
					c-21.273-31.577-42.335-21.291-40.539-34.722c1.427-10.606,43.774-20.723,73.223-41.585
					C87.709,291.281,93.883,285.832,98.666,279.658z"/>
				<path id="XMLID_6831_" style="fill:#FC819C;" d="M98.666,279.658l49.258,49.258c-1.856,5.436-3.997,12.027-6.095,19.217
					c-15.299-5.926-29.642-15.069-41.99-27.417c-7.534-7.534-13.866-15.801-19.006-24.581
					C87.709,291.281,93.883,285.832,98.666,279.658z"/>
			</g>
			<path id="XMLID_6595_" style="fill:#C4C8F7;" d="M278.984,281.028c-4.88,9.82-11.41,19.03-19.6,27.21
				c-8.22,8.23-17.48,14.79-27.36,19.67c-38.89,19.28-87.32,12.72-119.71-19.67c-29.47-29.47-37.56-72.23-24.24-108.98
				c5.02-13.9,13.1-26.94,24.25-38.08c40.61-40.61,106.45-40.61,147.06,0c0.28,0.28,0.56,0.56,0.82,0.85
				C291.924,194.448,298.174,242.458,278.984,281.028z"/>
			<path id="XMLID_6301_" style="fill:#A6AEF2;" d="M278.984,281.028c-4.88,9.82-11.41,19.03-19.6,27.21
				c-8.22,8.23-17.48,14.79-27.36,19.67c-21.71-32.85-26.04-73.81-12.97-109.88c5.95-16.47,15.53-31.93,28.74-45.14
				c3.95-3.95,8.09-7.57,12.41-10.86C291.924,194.448,298.174,242.458,278.984,281.028z"/>
			<path id="XMLID_6577_" style="fill:#FFA6B7;" d="M278.984,281.028c-10.47-33.36-32.65-58.98-56.8-70.82
				c-19.97-9.79-41.29-10.14-58.47,2.36c-33.05,24.06-62.64,0.42-75.64-13.31c5.02-13.9,13.1-26.94,24.25-38.08
				c40.61-40.61,106.45-40.61,147.06,0c0.28,0.28,0.56,0.56,0.82,0.85C291.924,194.448,298.174,242.458,278.984,281.028z"/>
			<path id="XMLID_6302_" style="fill:#FC819C;" d="M278.984,281.028c-10.47-33.36-32.65-58.98-56.8-70.82
				c5.98-13.54,14.51-26.22,25.61-37.32c3.95-3.95,8.09-7.57,12.41-10.86C291.924,194.448,298.174,242.458,278.984,281.028z"/>
			<path id="XMLID_6898_" style="fill:#FC819C;" d="M259.382,161.174c26.927,26.927,36.004,64.944,27.217,99.333
				c-2.884-31.499-18.848-64.999-40.2-86.35c-38.428-38.428-99.442-40.496-140.295-6.198c1.953-2.328,4.027-4.596,6.216-6.785
				C152.932,120.563,218.771,120.563,259.382,161.174z"/>
		</g>
		<g id="XMLID_6484_">
			<g id="XMLID_6888_">
				<path id="XMLID_6893_" style="fill:#8FE5D8;" d="M504.408,164.853c-1.246,9.252-37.019,18.08-63.354,35.671
					c-7.22,4.813-13.721,10.286-18.619,16.599l-44.342-44.342c2.183-6.416,4.807-14.603,7.232-23.474
					c4.934-18.02,9.052-38.852,7.045-53.352c-4.275-30.882,24.75-11.532,32.412,9.832c7.655,21.37,23.982-0.605,43.127,27.816
					C487.065,162.023,506.022,152.766,504.408,164.853z"/>
				<path id="XMLID_6892_" style="fill:#63CEC1;" d="M420.954,174.039c8.073,8.073,14.773,16.998,20.1,26.486
					c-7.22,4.813-13.721,10.286-18.619,16.599l-44.342-44.342c2.183-6.416,4.807-14.603,7.232-23.474
					C398.241,155.172,410.335,163.42,420.954,174.039z"/>
			</g>
			<g id="XMLID_6495_">
				<path id="XMLID_6887_" style="fill:#8FE5D8;" d="M247.763,304.998l49.258,49.258c-1.856,5.436-3.997,12.027-6.095,19.217
					c-6.265,21.382-12.257,48.14-9.76,66.129c4.747,34.304-27.495,12.813-36.004-10.921c-8.508-23.734-26.643,0.665-47.916-30.9
					c-21.273-31.577-42.335-21.291-40.539-34.722c1.427-10.606,43.774-20.723,73.223-41.585
					C236.806,316.62,242.98,311.171,247.763,304.998z"/>
				<path id="XMLID_6502_" style="fill:#63CEC1;" d="M247.763,304.998l49.258,49.258c-1.856,5.436-3.997,12.027-6.095,19.217
					c-15.299-5.926-29.642-15.069-41.99-27.417c-7.534-7.534-13.866-15.801-19.006-24.581
					C236.806,316.62,242.98,311.171,247.763,304.998z"/>
			</g>
			<path id="XMLID_6494_" style="fill:#FFC988;" d="M408.479,186.514c32.43,32.43,38.967,80.945,19.604,119.851
				c-4.88,9.826-11.417,19.036-19.598,27.217c-40.617,40.617-106.463,40.611-147.074,0c-29.473-29.473-37.558-72.231-24.242-108.984
				c5.019-13.896,13.104-26.939,24.248-38.084C302.028,145.902,367.867,145.902,408.479,186.514z"/>
			<path id="XMLID_6487_" style="fill:#FFB64D;" d="M408.479,186.514c26.927,26.927,36.004,64.944,27.217,99.333
				c-2.884-31.499-18.848-64.999-40.2-86.35c-38.428-38.428-99.442-40.496-140.295-6.198c1.953-2.328,4.027-4.596,6.216-6.785
				C302.028,145.902,367.867,145.902,408.479,186.514z"/>
		</g>
		<circle id="XMLID_7159_" style="fill:#63CEC1;" cx="358.62" cy="296.244" r="25.246"/>
	</g>
	<g id="XMLID_224_">
		<path id="XMLID_855_" d="M499.11,149.301c-5.403-2.038-12.127-4.575-19.538-12.855c-2.763-3.087-7.505-3.35-10.59-0.586
			c-3.086,2.762-3.349,7.503-0.587,10.59c9.859,11.016,19.225,14.548,25.421,16.886c0.635,0.239,1.37,0.517,2.044,0.787
			c-3.831,2.815-13.318,7.048-20.541,10.27c-14.705,6.561-32.438,14.492-46.364,25.712c-2.131-3.335-4.433-6.562-6.916-9.66
			c7.577-6.804,21.851-19.129,34.05-26.856c3.499-2.217,4.539-6.85,2.322-10.35c-2.217-3.499-6.85-4.54-10.35-2.322
			c-13.162,8.338-28.277,21.391-36.174,28.485c-0.885-0.845-1.78-1.676-2.689-2.489c2.736-4.973,7.029-13.159,12.092-24.152
			c1.732-3.763,0.087-8.217-3.675-9.95c-3.763-1.731-8.217-0.087-9.95,3.675c-4.201,9.123-7.871,16.263-10.465,21.082
			c-2.583-1.741-5.236-3.371-7.957-4.888c6.661-21.668,13.138-49.101,10.549-67.75c-0.564-4.083-0.349-6.321-0.112-7.419
			c4.148,1.231,14.048,9.691,18.034,20.809c5.206,14.508,15.052,15.41,22.241,16.068c3.188,0.292,6.201,0.568,9.252,1.83
			c3.829,1.581,8.214-0.237,9.797-4.065c1.583-3.828-0.238-8.214-4.065-9.797c-5.152-2.13-9.845-2.56-13.615-2.905
			c-6.367-0.583-7.514-0.688-9.49-6.195c-5.889-16.43-23.499-33.695-36.529-30.495c-4.956,1.217-12.892,5.982-10.37,24.227
			c1.735,12.497-1.595,33.339-9.4,59.217c-6.331-2.474-12.874-4.366-19.544-5.643c3.896-2.953,6.22-6.105,6.747-10.049
			c1.499-11.185-7.406-14.542-12.727-16.549c-6.549-2.469-15.519-5.851-24.977-19.888c-12.172-18.065-24.589-19.207-32.806-19.963
			c-6.363-0.585-7.51-0.69-9.483-6.196c-5.89-16.431-23.503-33.696-36.535-30.495c-4.956,1.218-12.891,5.984-10.364,24.227
			c1.73,12.465-1.597,33.318-9.387,59.169c-12.768-4.986-26.485-7.598-40.605-7.598c-29.779,0-57.776,11.597-78.831,32.652
			c-11.684,11.673-20.433,25.413-26.001,40.832c-0.021,0.057-0.038,0.114-0.059,0.171c-0.009,0.026-0.018,0.052-0.027,0.079
			c-3.247,9.034-5.32,18.477-6.154,28.075c-0.359,4.126,2.696,7.763,6.822,8.121c0.221,0.02,0.44,0.029,0.658,0.029
			c3.848,0,7.124-2.945,7.463-6.851c0.39-4.483,1.1-8.925,2.105-13.295c10.247,8.499,25.177,17.462,42.582,17.462
			c10.502,0,21.904-3.264,33.716-11.863c16.802-12.233,40.012-10.339,61.537,4.707c-9.731,27.934-7.86,58.631,4.757,84.967
			c-9.629,8.765-22.331,15.867-34.835,21.897c-29.993,4.295-60.56-5.849-81.972-27.27c-13.471-13.461-22.575-30.398-26.33-48.98
			c-0.82-4.06-4.776-6.685-8.837-5.866c-4.06,0.82-6.687,4.777-5.866,8.837c1.834,9.077,4.784,17.808,8.738,26.044
			c-14.113,12.851-34.867,22.129-51.841,29.7c-19.949,8.899-31.991,14.27-33.3,24.063c-1.578,11.765,7.558,15.209,13.604,17.489
			c7.381,2.783,17.49,6.595,28.15,22.409c13.301,19.741,26.859,20.989,35.83,21.814c6.991,0.643,8.87,0.816,11.24,7.426
			c5.908,16.482,22.52,33.76,36.098,33.76c1.193,0,2.364-0.134,3.501-0.413c5.233-1.285,13.605-6.371,10.89-25.986
			c-2.089-15.093,2.311-40.66,12.409-72.386c5.254,1.68,10.631,2.972,16.088,3.863c-11.162,5.483-17.76,10.26-18.708,17.358
			c-1.587,11.769,7.551,15.214,13.598,17.495c7.381,2.783,17.49,6.594,28.145,22.408c13.301,19.742,26.862,20.99,35.836,21.815
			c6.994,0.644,8.874,0.816,11.244,7.426c5.908,16.482,22.52,33.76,36.098,33.76c1.194,0,2.364-0.134,3.501-0.413
			c5.233-1.286,13.605-6.371,10.89-25.986c-2.086-15.068,2.308-40.623,12.39-72.35c11.028,3.508,22.496,5.265,33.966,5.265
			c28.551,0,57.102-10.868,78.838-32.604c8.593-8.593,15.663-18.409,21.013-29.175c1.843-3.709,0.331-8.211-3.379-10.054
			c-3.71-1.845-8.211-0.332-10.054,3.378c-4.626,9.309-10.745,17.803-18.187,25.245c-37.623,37.623-98.84,37.623-136.469-0.005
			c-4.492-4.482-8.547-9.415-12.054-14.662c-16.964-25.36-20.868-57.68-10.439-86.462c4.811-13.321,12.381-25.206,22.499-35.325
			c1.033-1.033,2.094-2.047,3.169-3.029c2.184-2.005,4.539-3.961,7.01-5.821c15.097-11.409,33.088-18.054,52.039-19.218
			c16.562-1.038,33.155,2.21,48.011,9.41c9.7,4.679,18.524,10.957,26.225,18.658c6.96,6.96,12.777,14.858,17.29,23.478
			c9.727,18.562,13.139,40.226,9.609,61.003c-0.694,4.083,2.054,7.957,6.138,8.65c4.088,0.697,7.957-2.054,8.65-6.138
			c3.752-22.086,0.691-45.041-8.583-65.282c12.584-10.89,30.483-18.894,45.156-25.44c18.19-8.115,29.169-13.013,30.407-22.237
			C513.338,154.668,504.432,151.309,499.11,149.301z M250.703,69.589c-0.565-4.08-0.351-6.318-0.115-7.417
			c4.15,1.232,14.052,9.691,18.036,20.807c5.199,14.505,15.042,15.411,22.229,16.072c6.966,0.641,13.546,1.246,21.741,13.408
			c12.131,18.003,24.646,22.722,32.125,25.542c0.633,0.239,1.367,0.515,2.04,0.785c-3.769,2.769-13.002,6.907-20.179,10.11
			c-18.815,1.395-36.782,7.471-52.459,17.71c-0.391-0.505-0.8-0.997-1.2-1.495c10.022-9.09,21.641-18.981,34.074-26.861
			c3.499-2.217,4.537-6.851,2.32-10.35c-2.218-3.499-6.852-4.538-10.35-2.32c-13.384,8.484-25.641,18.916-36.159,28.459
			c-0.881-0.842-1.776-1.663-2.68-2.473c1.871-3.287,5.904-10.755,12.069-24.144c1.732-3.763,0.087-8.217-3.675-9.95
			c-3.763-1.731-8.217-0.087-9.95,3.675c-4.946,10.74-8.429,17.448-10.411,21.075c-2.6-1.759-5.265-3.402-7.991-4.927
			C246.743,115.891,253.301,88.303,250.703,69.589z M124.635,415.286c0.794,5.736,0.222,8.378-0.117,9.344
			c-4.273-0.509-16.569-10.363-21.394-23.824c-5.598-15.608-16.225-16.586-23.985-17.3c-7.941-0.73-15.441-1.42-24.765-15.26
			c-13.333-19.78-27.083-24.964-35.297-28.062c-1.144-0.431-2.567-0.968-3.569-1.423c3.404-3.17,15.239-8.449,24.084-12.395
			c17.043-7.603,37.668-16.818,53.307-30.083c2.703,4.07,5.673,7.976,8.915,11.686c-7.662,6.966-25.27,22.479-40.085,31.863
			c-3.5,2.217-4.539,6.85-2.323,10.349c1.428,2.254,3.859,3.488,6.343,3.488c1.372,0,2.761-0.376,4.006-1.165
			c16.281-10.313,34.97-26.867,42.675-33.907c1.146,1.002,2.311,1.979,3.494,2.93c-3.29,5.853-8.985,16.423-15.228,29.979
			c-1.732,3.763-0.087,8.217,3.675,9.95c1.016,0.468,2.083,0.689,3.132,0.689c2.837,0,5.553-1.619,6.817-4.365
			c5.564-12.083,10.74-21.809,13.971-27.625c3.128,1.88,6.341,3.602,9.628,5.163C129.821,360.584,121.601,393.366,124.635,415.286z
			 M273.735,440.627c0.794,5.736,0.222,8.378-0.117,9.344c-4.273-0.509-16.569-10.363-21.394-23.824
			c-5.598-15.608-16.228-16.586-23.99-17.3c-7.943-0.73-15.446-1.42-24.769-15.259c-13.328-19.781-27.078-24.965-35.293-28.063
			c-1.143-0.431-2.565-0.967-3.567-1.421c3.401-3.17,15.24-8.451,24.087-12.398c17.037-7.6,37.655-16.813,53.294-30.073
			c0.069,0.104,0.134,0.21,0.203,0.313c2.647,3.96,5.569,7.761,8.718,11.365c-7.668,6.969-25.285,22.488-40.083,31.861
			c-3.499,2.217-4.539,6.85-2.322,10.35c1.428,2.254,3.858,3.487,6.343,3.487c1.372,0,2.761-0.376,4.006-1.165
			c16.28-10.313,34.967-26.865,42.673-33.906c1.148,1.006,2.311,1.988,3.49,2.939c-3.292,5.855-8.983,16.421-15.222,29.969
			c-1.732,3.763-0.087,8.217,3.675,9.95c1.016,0.468,2.083,0.689,3.132,0.689c2.837,0,5.553-1.619,6.817-4.365
			c5.555-12.063,10.723-21.777,13.955-27.596c3.14,1.893,6.353,3.618,9.628,5.174C278.914,385.961,270.705,418.739,273.735,440.627z
			 M256.111,181.215c-8.358,8.358-15.204,17.77-20.465,28.084c-26.238-17.19-54.843-18.45-76.346-2.795
			c-25.577,18.621-49.038,3.799-62.466-9.07c4.823-11.57,11.799-21.967,20.794-30.953c18.225-18.224,42.455-28.261,68.227-28.261
			s50.002,10.037,68.227,28.261c2.879,2.878,5.557,5.948,8.039,9.152c-0.803,0.693-1.595,1.391-2.362,2.095
			C258.531,178.849,257.304,180.022,256.111,181.215z"/>
		<path id="XMLID_861_" d="M325.874,296.244c0,18.056,14.69,32.746,32.746,32.746s32.746-14.69,32.746-32.746
			s-14.69-32.746-32.746-32.746S325.874,278.188,325.874,296.244z M376.366,296.244c0,9.785-7.961,17.746-17.746,17.746
			s-17.746-7.961-17.746-17.746s7.961-17.746,17.746-17.746S376.366,286.459,376.366,296.244z"/>
	</g>
</g>
<g>
</g>
<g>
</g>
<g>
</g>
<g>
</g>
<g>
</g>
<g>
</g>
<g>
</g>
<g>
</g>
<g>
</g>
<g>
</g>
<g>
</g>
<g>
</g>
<g>
</g>
<g>
</g>
<g>
</g>
</svg>
