<?xml version="1.0" encoding="iso-8859-1"?>
<!-- Generator: Adobe Illustrator 19.0.0, SVG Export Plug-In . SVG Version: 6.00 Build 0)  -->
<svg version="1.1" id="Layer_1" xmlns="http://www.w3.org/2000/svg" xmlns:xlink="http://www.w3.org/1999/xlink" x="0px" y="0px"
	 viewBox="0 0 511.999 511.999" style="enable-background:new 0 0 511.999 511.999;" xml:space="preserve">
<path style="fill:#006539;" d="M114.847,402.341c44.53,31.692,68.45,74.496,62.198,83.279c-6.251,8.784-54.529,0.206-99.06-31.485
	c-44.531-31.692-68.45-74.496-62.198-83.279C22.039,362.073,70.317,370.651,114.847,402.341z"/>
<path style="opacity:0.1;enable-background:new    ;" d="M177.046,485.622c-6.251,8.784-54.529,0.206-99.06-31.485
	c-44.531-31.692-68.45-74.496-62.198-83.279L177.046,485.622z"/>
<path style="fill:#006539;" d="M410.599,343.344c31.692-44.53,74.496-68.45,83.279-62.198c8.784,6.251,0.206,54.53-31.485,99.06
	c-31.692,44.531-74.496,68.449-83.279,62.198C370.33,436.152,378.907,387.875,410.599,343.344z"/>
<path style="opacity:0.1;enable-background:new    ;" d="M493.878,281.145c8.784,6.251,0.206,54.53-31.485,99.06
	c-31.692,44.531-74.496,68.45-83.279,62.198L493.878,281.145z"/>
<path style="fill:#00A155;" d="M432.069,302.927c-4.542,54.467-29.157,96.876-39.901,95.979
	c-10.744-0.896-27.993-46.796-23.451-101.263c4.542-54.467,29.157-96.876,39.901-95.979
	C419.362,202.559,436.612,248.459,432.069,302.927z"/>
<path style="opacity:0.1;enable-background:new    ;" d="M392.168,398.906c-10.744-0.896-27.993-46.796-23.451-101.263
	c4.542-54.467,29.157-96.876,39.901-95.979L392.168,398.906z"/>
<path id="SVGCleanerId_0" style="fill:#54C7D8;" d="M156.189,385.243c-60.569,0-109.846-49.277-109.846-109.846
	S95.62,165.551,156.189,165.551s109.846,49.277,109.846,109.846S216.757,385.243,156.189,385.243z M156.189,210.33
	c-35.878,0-65.067,29.189-65.067,65.067s29.189,65.067,65.067,65.067s65.067-29.189,65.067-65.067S192.067,210.33,156.189,210.33z"
	/>
<g>
	<path id="SVGCleanerId_0_1_" style="fill:#54C7D8;" d="M156.189,385.243c-60.569,0-109.846-49.277-109.846-109.846
		S95.62,165.551,156.189,165.551s109.846,49.277,109.846,109.846S216.757,385.243,156.189,385.243z M156.189,210.33
		c-35.878,0-65.067,29.189-65.067,65.067s29.189,65.067,65.067,65.067s65.067-29.189,65.067-65.067S192.067,210.33,156.189,210.33z"
		/>
</g>
<path style="opacity:0.2;fill:#FFFFFF;enable-background:new    ;" d="M149.573,165.756c-18.344,1.095-35.492,6.705-50.336,15.742
	c4.706,7.997,13.396,13.366,23.345,13.366c14.953,0,27.075-12.122,27.075-27.074C149.658,167.105,149.624,166.428,149.573,165.756z"
	/>
<path style="opacity:0.1;enable-background:new    ;" d="M165.078,165.911v45.041c31.685,4.35,56.178,31.583,56.178,64.445
	c0,35.878-29.189,65.067-65.067,65.067c-25.17,0-47.032-14.375-57.848-35.337c-2.255,4.628-4.149,9.455-5.602,14.466l0,0
	c-3.728,12.864-6.397,25.957-8.019,39.151c19.225,16.509,44.201,26.5,71.47,26.5c60.569,0,109.846-49.277,109.846-109.846
	C266.034,217.82,221.506,170.453,165.078,165.911z"/>
<path style="fill:#C39774;" d="M317.412,73.97H196.745V16.007c0-4.466,3.62-8.087,8.087-8.087h104.492
	c4.466,0,8.087,3.62,8.087,8.087V73.97H317.412z"/>
<circle style="opacity:0.15;enable-background:new    ;" cx="225.584" cy="35.971" r="7.921"/>
<path style="opacity:0.15;enable-background:new    ;" d="M240.123,7.921c0,4.374,3.546,7.921,7.921,7.921
	c4.374,0,7.921-3.546,7.921-7.921H240.123z"/>
<circle style="opacity:0.15;enable-background:new    ;" cx="291.644" cy="25.875" r="7.921"/>
<rect x="196.742" y="35.971" style="opacity:0.15;enable-background:new    ;" width="120.671" height="37.999"/>
<path style="fill:#54C7D8;" d="M327.436,215.317V70.054H186.722v145.264c0,20.905-11.297,40.176-29.537,50.388l0,0
	c-20.793,11.641-36.169,30.998-42.802,53.886l0,0c-12.55,43.299-13.183,89.182-1.834,132.811l0,0
	c7.177,27.59,32.086,46.848,60.594,46.848h167.875c28.509,0,53.417-19.258,60.594-46.848l0,0
	c11.349-43.629,10.715-89.511-1.834-132.811l0,0c-6.633-22.888-22.009-42.244-42.802-53.886l0,0
	C338.734,255.494,327.436,236.222,327.436,215.317z"/>
<rect x="186.72" y="70.052" style="opacity:0.1;enable-background:new    ;" width="140.716" height="47.266"/>
<path style="fill:#54C7D8;" d="M364.038,50.524H192.804c-10.786,0-19.53,8.744-19.53,19.53l0,0c0,10.785,8.744,19.53,19.53,19.53
	h134.633V116.2l42.478-53.51C373.816,57.774,370.315,50.524,364.038,50.524z"/>
<path style="fill:#FDD05F;" d="M399.776,319.592L399.776,319.592c-6.633-22.888-22.009-42.245-42.802-53.886l0,0
	c-18.24-10.212-29.537-29.483-29.537-50.388V201.65H186.722v13.668c0,20.905-11.297,40.176-29.537,50.388l0,0
	c-20.793,11.64-36.169,30.998-42.802,53.886l0,0c-12.55,43.299-13.183,89.182-1.834,132.811l0,0
	c7.177,27.59,32.086,46.848,60.594,46.848h167.875c28.509,0,53.417-19.258,60.594-46.848l0,0
	C412.959,408.774,412.325,362.89,399.776,319.592z"/>
<path style="opacity:0.1;enable-background:new    ;" d="M358.448,481.819H190.574c-28.509,0-53.417-19.258-60.594-46.848l0,0
	c-11.349-43.629-10.715-89.511,1.834-132.811l0,0c3.122-10.772,8.183-20.761,14.832-29.533
	c-15.431,11.719-26.808,28.143-32.264,46.966l0,0c-12.55,43.299-13.183,89.182-1.834,132.811l0,0
	c7.177,27.59,32.086,46.848,60.594,46.848h167.875c21.405,0,40.781-10.858,52.144-27.947
	C383.137,477.986,371.153,481.819,358.448,481.819z"/>
<g>
	<path style="opacity:0.3;fill:#FFFFFF;enable-background:new    ;" d="M364.038,50.524h-53.923
		c7.516,13.958,22.261,23.446,39.224,23.446c4.597,0,9.031-0.698,13.202-1.991l7.373-9.287
		C373.816,57.774,370.315,50.524,364.038,50.524z"/>
	<circle style="opacity:0.35;fill:#FFFFFF;enable-background:new    ;" cx="282.751" cy="391.584" r="27.074"/>
	<path style="opacity:0.35;fill:#FFFFFF;enable-background:new    ;" d="M399.776,319.592L399.776,319.592
		c-6.633-22.888-22.009-42.245-42.802-53.886l0,0c-12.909-7.227-22.334-18.994-26.744-32.663
		c-20.254,11.814-33.876,33.757-33.876,58.896c0,37.639,30.512,68.151,68.151,68.151c15.575,0,29.922-5.236,41.399-14.029
		C404.343,337.158,402.306,328.322,399.776,319.592z"/>
</g>
<ellipse transform="matrix(-0.6221 -0.7829 0.7829 -0.6221 231.0758 978.8578)" style="fill:#00A155;" cx="351.763" cy="433.664" rx="74.453" ry="63.576"/>
<path style="opacity:0.1;enable-background:new    ;" d="M399.994,475.405c-27.489,21.841-70.509,13.451-96.089-18.743
	c-12.065-15.184-18.088-32.949-18.207-49.778c-5.154,21.12,0.176,46.041,16.311,66.347c25.579,32.193,68.6,40.584,96.089,18.743
	c14.524-11.54,21.799-29.211,21.665-48.06C416.746,456.278,410.144,467.34,399.994,475.405z"/>
<path style="opacity:0.2;fill:#FFFFFF;enable-background:new    ;" d="M359.289,365.703c-0.643,0.439-1.279,0.896-1.898,1.388
	c-13.944,11.079-16.265,31.364-5.187,45.308s31.364,16.266,45.307,5.187c4.907-3.898,8.368-8.939,10.318-14.44
	c-1.872-3.081-3.958-6.093-6.274-9.008C390.01,379.606,374.908,369.943,359.289,365.703z"/>
<path d="M498.471,274.693c-6.535-4.653-17.558-2.599-32.762,6.097c-8.248,4.719-16.924,10.982-25.421,18.285
	c2.015-31.853-3.183-56.71-6.577-68.981c-8.022-29.007-17.715-35.764-24.433-36.325c-8.483-0.702-17.427,7.587-26.559,24.655
	c-6.66,12.449-12.273,27.683-16.219,43.817c-1.845-1.199-3.719-2.363-5.655-3.447c-15.72-8.802-25.486-25.461-25.486-43.477v-96.356
	l40.76-51.346c3.712-4.676,4.405-10.92,1.808-16.297c-2.596-5.376-7.919-8.715-13.888-8.715h-38.705V16.007
	C325.333,7.18,318.152,0,309.325,0H204.832c-8.827,0-16.007,7.18-16.007,16.007v26.887c-13.256,1.934-23.471,13.373-23.471,27.158
	c0,10.024,5.403,18.805,13.446,23.597v66.183c-7.428-1.451-14.996-2.202-22.612-2.202c-64.937,0-117.767,52.83-117.767,117.767
	c0,42.043,22.265,80.535,58.432,101.679c-0.073,1.532-0.13,3.065-0.175,4.597c-15.92-8.681-32.583-15.311-48.015-19.016
	c-25.951-6.231-35.71-1.476-39.328,3.607c-3.91,5.493-5.006,17.257,11.969,42.109c7.517,11.006,24.281,32.425,52.09,52.216
	c15.862,11.288,33.537,20.67,51.22,27.212c12.779,12.114,29.974,19.371,48.527,19.371h162.438
	c8.768,3.188,17.824,4.827,26.715,4.827c14.712,0,28.972-4.48,40.73-13.823c20.082-15.956,27.983-42.223,23.28-68.424
	c11.775-9.277,27.598-23.957,42.541-44.954c19.793-27.81,28.614-53.538,32.111-66.4
	C505.314,302.369,508.422,281.775,498.471,274.693z M204.666,16.007c0-0.092,0.074-0.166,0.166-0.166h104.492
	c0.092,0,0.166,0.074,0.166,0.166v26.596H204.665V16.007H204.666z M192.804,58.445h170.367l-27.814,35.037v-3.9
	c0-4.374-3.546-7.921-7.921-7.921H192.804c-6.401,0-11.608-5.208-11.608-11.609C181.196,63.653,186.403,58.445,192.804,58.445z
	 M54.264,275.397c0-56.202,45.723-101.925,101.925-101.925c7.637,0,15.216,0.864,22.612,2.546v30.003
	c-7.281-2.375-14.931-3.613-22.612-3.613c-40.245,0-72.988,32.743-72.988,72.989c0,19.199,7.64,37.594,21.087,51.224
	c-2.691,10.763-4.681,21.661-5.965,32.625C70.884,340.311,54.264,309.179,54.264,275.397z M82.579,447.683
	c-17.832-12.691-34.169-28.717-46.004-45.125c-9.767-13.542-13.255-22.855-13.792-26.713c3.44-0.659,12.017-0.564,25.683,3.107
	c15.64,4.202,32.653,11.617,48.317,21.025c0.006,0.153,0.019,0.306,0.025,0.459c0.092,2.127,0.204,4.254,0.349,6.38
	c0.001,0.021,0.002,0.041,0.004,0.062c0.147,2.159,0.325,4.316,0.527,6.472c0.024,0.262,0.05,0.524,0.075,0.787
	c0.413,4.289,0.934,8.57,1.562,12.84c0.036,0.245,0.071,0.49,0.108,0.736c0.314,2.091,0.652,4.179,1.017,6.265
	c0.042,0.239,0.087,0.476,0.129,0.715c0.347,1.951,0.717,3.898,1.109,5.842c0.043,0.212,0.082,0.425,0.126,0.637
	c0.409,1.997,0.845,3.989,1.301,5.979c0.096,0.42,0.195,0.841,0.294,1.261c0.469,1.999,0.954,3.996,1.472,5.986
	c0.771,2.965,1.727,5.841,2.847,8.624C99.91,458.975,91.367,453.937,82.579,447.683z M99.043,275.397
	c0-31.511,25.636-57.147,57.146-57.147c7.565,0,15.084,1.549,22.04,4.465c-2.271,15.084-11.374,28.498-24.914,36.079
	c-20.043,11.221-35.247,28.708-43.548,49.832C102.865,298.999,99.043,287.398,99.043,275.397z M173.142,491.331
	c-24.897,0-46.661-16.828-52.929-40.922c-0.533-2.049-1.032-4.108-1.51-6.172c-0.074-0.32-0.151-0.639-0.224-0.959
	c-0.457-2.006-0.888-4.018-1.294-6.036c-0.061-0.307-0.121-0.614-0.183-0.921c-0.414-2.098-0.806-4.202-1.164-6.311
	c-0.008-0.05-0.016-0.099-0.024-0.15c-0.375-2.219-0.72-4.442-1.034-6.671c-0.007-0.055-0.017-0.11-0.024-0.165
	c-0.305-2.177-0.577-4.359-0.823-6.543c-0.023-0.207-0.046-0.415-0.07-0.622c-0.238-2.16-0.448-4.323-0.627-6.489
	c-0.013-0.152-0.023-0.304-0.036-0.456c-0.357-4.409-0.592-8.83-0.708-13.253c-0.647-24.861,2.516-49.786,9.495-73.866
	c6.093-21.022,19.966-38.488,39.063-49.18c20.719-11.599,33.588-33.555,33.588-57.299V97.503h124.873v117.814
	c0,23.744,12.87,45.7,33.59,57.3c19.098,10.692,32.971,28.157,39.063,49.179c5.726,19.757,8.887,40.011,9.474,60.457
	c-12.755-13.219-28.761-22.184-45.899-25.526c-20.463-3.99-40.066,0.436-55.204,12.464c-15.139,12.029-23.882,30.127-24.619,50.959
	c-0.719,20.362,6.343,40.963,19.887,58.009c3.895,4.902,8.17,9.296,12.722,13.17H173.142V491.331z M393.17,485.774
	c-8.887,7.061-19.695,10.438-30.95,10.436c-19.174-0.001-39.629-9.807-54.01-27.904c-11.199-14.095-17.043-30.998-16.457-47.595
	c0.57-16.126,7.19-30.017,18.641-39.116c8.655-6.876,19.352-10.446,30.897-10.446c3.731,0,7.551,0.373,11.419,1.127
	c16.3,3.179,31.444,12.692,42.644,26.787C418.175,427.786,417.195,466.683,393.17,485.774z M407.384,317.387
	c-4.986-17.201-14.344-32.401-27.086-44.364c7.283-34.969,21.401-58.132,27.582-62.832c2.593,2.864,7.476,11.545,11.531,27.813
	c4.892,19.63,6.585,42.452,4.765,64.264c-1.354,16.242-4.75,32.708-9.616,47.519C412.869,338.879,410.478,328.064,407.384,317.387z
	 M484.622,317.907c-5.805,19.38-15.992,39.872-28.683,57.705c-9.841,13.828-21.797,26.86-34.355,37.535
	c-1.268-3.23-2.73-6.423-4.401-9.561c0.378-6.837,0.497-13.666,0.337-20.475c8.978-16.402,15.976-37.59,19.827-59.521
	c23.508-24.244,44.774-34.539,51.551-35.461C489.66,291.938,489.422,301.886,484.622,317.907z"/>
<g>
</g>
<g>
</g>
<g>
</g>
<g>
</g>
<g>
</g>
<g>
</g>
<g>
</g>
<g>
</g>
<g>
</g>
<g>
</g>
<g>
</g>
<g>
</g>
<g>
</g>
<g>
</g>
<g>
</g>
</svg>
